<svg width="315" height="98" viewBox="0 0 315 98" fill="none" xmlns="http://www.w3.org/2000/svg">
<g filter="url(#filter0_f_31_251)">
<path d="M34.296 77.08C19.608 77.08 8.016 65.272 8.016 50.08C8.016 34.96 19.608 23.224 34.296 23.224C48.48 23.224 59.424 32.656 61.08 46.336H46.68C45.6 39.856 40.776 35.392 34.44 35.392C26.808 35.392 21.984 41.296 21.984 50.08C21.984 58.936 26.808 64.912 34.44 64.912C40.704 64.912 45.528 60.448 46.68 53.896H61.08C59.352 67.72 48.48 77.08 34.296 77.08ZM78.7177 58.144V76H66.4057V37.264H77.7097V44.104C80.6617 39.568 86.7817 36.976 92.9737 36.976V49.792C84.2618 48.928 78.7177 49.576 78.7177 58.144ZM114.119 76.648C102.167 76.648 94.1752 68.584 94.1752 56.56C94.1752 44.968 102.527 36.544 114.047 36.544C126.863 36.544 135.431 46.984 133.199 59.728H106.919C107.567 64.624 109.871 67.072 113.831 67.072C117.287 67.072 119.591 65.632 120.671 62.824H132.983C130.607 71.68 123.767 76.648 114.119 76.648ZM113.759 45.616C110.087 45.616 107.927 47.704 107.063 52.024H120.023C119.879 48.136 117.431 45.616 113.759 45.616ZM135.291 56.632C135.291 45.4 142.131 36.544 152.571 36.544C156.603 36.544 160.059 37.984 163.083 40.864V24.304H175.395V76H164.091V71.608C160.923 74.92 157.107 76.72 152.571 76.72C142.131 76.72 135.291 67.72 135.291 56.632ZM148.107 56.632C148.107 62.68 151.779 65.632 155.523 65.632C159.339 65.632 162.939 62.68 162.939 56.56C162.939 50.368 159.267 47.632 155.523 47.632C151.779 47.632 148.107 50.44 148.107 56.632ZM196.69 28.264C196.69 32.296 193.45 35.248 188.77 35.248C184.09 35.248 180.85 32.296 180.85 28.264C180.85 24.16 184.09 21.208 188.77 21.208C193.45 21.208 196.69 24.16 196.69 28.264ZM195.034 76H182.722V37.264H195.034V76ZM244.009 60.448C244.009 70.168 236.809 76 224.785 76H203.401V24.304H224.137C235.441 24.304 242.497 29.272 242.497 38.272C242.497 42.808 240.121 46.336 235.801 48.928C241.057 51.16 244.009 54.976 244.009 60.448ZM223.057 35.032H215.713V43.96H223.057C227.593 43.96 229.681 42.232 229.681 39.424C229.681 36.76 227.593 35.032 223.057 35.032ZM223.705 54.688H215.713V65.272H223.705C228.817 65.272 231.193 63.256 231.193 59.944C231.193 56.776 228.817 54.688 223.705 54.688ZM263.032 28.264C263.032 32.296 259.792 35.248 255.112 35.248C250.432 35.248 247.192 32.296 247.192 28.264C247.192 24.16 250.432 21.208 255.112 21.208C259.792 21.208 263.032 24.16 263.032 28.264ZM261.376 76H249.064V37.264H261.376V76ZM266.286 56.632C266.286 45.4 273.126 36.544 283.566 36.544C287.598 36.544 291.054 37.984 294.078 40.864V24.304H306.39V76H295.086V71.608C291.918 74.92 288.102 76.72 283.566 76.72C273.126 76.72 266.286 67.72 266.286 56.632ZM279.102 56.632C279.102 62.68 282.774 65.632 286.518 65.632C290.334 65.632 293.934 62.68 293.934 56.56C293.934 50.368 290.262 47.632 286.518 47.632C282.774 47.632 279.102 50.44 279.102 56.632Z" fill="#FFA726"/>
</g>
<path d="M34.296 78.08C19.608 78.08 8.016 66.272 8.016 51.08C8.016 35.96 19.608 24.224 34.296 24.224C48.48 24.224 59.424 33.656 61.08 47.336H46.68C45.6 40.856 40.776 36.392 34.44 36.392C26.808 36.392 21.984 42.296 21.984 51.08C21.984 59.936 26.808 65.912 34.44 65.912C40.704 65.912 45.528 61.448 46.68 54.896H61.08C59.352 68.72 48.48 78.08 34.296 78.08ZM78.7177 59.144V77H66.4057V38.264H77.7097V45.104C80.6617 40.568 86.7817 37.976 92.9737 37.976V50.792C84.2618 49.928 78.7177 50.576 78.7177 59.144ZM114.119 77.648C102.167 77.648 94.1752 69.584 94.1752 57.56C94.1752 45.968 102.527 37.544 114.047 37.544C126.863 37.544 135.431 47.984 133.199 60.728H106.919C107.567 65.624 109.871 68.072 113.831 68.072C117.287 68.072 119.591 66.632 120.671 63.824H132.983C130.607 72.68 123.767 77.648 114.119 77.648ZM113.759 46.616C110.087 46.616 107.927 48.704 107.063 53.024H120.023C119.879 49.136 117.431 46.616 113.759 46.616ZM135.291 57.632C135.291 46.4 142.131 37.544 152.571 37.544C156.603 37.544 160.059 38.984 163.083 41.864V25.304H175.395V77H164.091V72.608C160.923 75.92 157.107 77.72 152.571 77.72C142.131 77.72 135.291 68.72 135.291 57.632ZM148.107 57.632C148.107 63.68 151.779 66.632 155.523 66.632C159.339 66.632 162.939 63.68 162.939 57.56C162.939 51.368 159.267 48.632 155.523 48.632C151.779 48.632 148.107 51.44 148.107 57.632ZM196.69 29.264C196.69 33.296 193.45 36.248 188.77 36.248C184.09 36.248 180.85 33.296 180.85 29.264C180.85 25.16 184.09 22.208 188.77 22.208C193.45 22.208 196.69 25.16 196.69 29.264ZM195.034 77H182.722V38.264H195.034V77ZM244.009 61.448C244.009 71.168 236.809 77 224.785 77H203.401V25.304H224.137C235.441 25.304 242.497 30.272 242.497 39.272C242.497 43.808 240.121 47.336 235.801 49.928C241.057 52.16 244.009 55.976 244.009 61.448ZM223.057 36.032H215.713V44.96H223.057C227.593 44.96 229.681 43.232 229.681 40.424C229.681 37.76 227.593 36.032 223.057 36.032ZM223.705 55.688H215.713V66.272H223.705C228.817 66.272 231.193 64.256 231.193 60.944C231.193 57.776 228.817 55.688 223.705 55.688ZM263.032 29.264C263.032 33.296 259.792 36.248 255.112 36.248C250.432 36.248 247.192 33.296 247.192 29.264C247.192 25.16 250.432 22.208 255.112 22.208C259.792 22.208 263.032 25.16 263.032 29.264ZM261.376 77H249.064V38.264H261.376V77ZM266.286 57.632C266.286 46.4 273.126 37.544 283.566 37.544C287.598 37.544 291.054 38.984 294.078 41.864V25.304H306.39V77H295.086V72.608C291.918 75.92 288.102 77.72 283.566 77.72C273.126 77.72 266.286 68.72 266.286 57.632ZM279.102 57.632C279.102 63.68 282.774 66.632 286.518 66.632C290.334 66.632 293.934 63.68 293.934 57.56C293.934 51.368 290.262 48.632 286.518 48.632C282.774 48.632 279.102 51.44 279.102 57.632Z" fill="#034C8C"/>
<defs>
<filter id="filter0_f_31_251" x="0.0159912" y="13.208" width="314.374" height="71.872" filterUnits="userSpaceOnUse" color-interpolation-filters="sRGB">
<feFlood flood-opacity="0" result="BackgroundImageFix"/>
<feBlend mode="normal" in="SourceGraphic" in2="BackgroundImageFix" result="shape"/>
<feGaussianBlur stdDeviation="4" result="effect1_foregroundBlur_31_251"/>
</filter>
</defs>
</svg>
