<svg width="260" height="51" viewBox="0 0 260 51" fill="none" xmlns="http://www.w3.org/2000/svg">
<g clip-path="url(#clip0_40_1318)">
<path d="M24.3499 50.1487C20.9803 50.1487 17.8395 49.6079 14.9275 48.5263C12.0571 47.4031 9.56106 45.8223 7.43946 43.7839C5.31786 41.7455 3.65386 39.3535 2.44746 36.6079C1.28266 33.8623 0.700256 30.8463 0.700256 27.5599C0.700256 24.2735 1.28266 21.2575 2.44746 18.5119C3.65386 15.7663 5.31786 13.3743 7.43946 11.3359C9.60266 9.29754 12.1195 7.73754 14.9899 6.65594C17.8603 5.53274 21.0011 4.97114 24.4123 4.97114C28.1979 4.97114 31.6091 5.63674 34.6459 6.96794C37.7243 8.25754 40.3035 10.1711 42.3835 12.7087L35.8939 18.6991C34.3963 16.9935 32.7323 15.7247 30.9019 14.8927C29.0715 14.0191 27.0747 13.5823 24.9115 13.5823C22.8731 13.5823 21.0011 13.9151 19.2955 14.5807C17.5899 15.2463 16.1131 16.2031 14.8651 17.4511C13.6171 18.6991 12.6395 20.1759 11.9323 21.8815C11.2667 23.5871 10.9339 25.4799 10.9339 27.5599C10.9339 29.6399 11.2667 31.5327 11.9323 33.2383C12.6395 34.9439 13.6171 36.4207 14.8651 37.6687C16.1131 38.9167 17.5899 39.8735 19.2955 40.5391C21.0011 41.2047 22.8731 41.5375 24.9115 41.5375C27.0747 41.5375 29.0715 41.1215 30.9019 40.2895C32.7323 39.4159 34.3963 38.1055 35.8939 36.3583L42.3835 42.3487C40.3035 44.8863 37.7243 46.8207 34.6459 48.1519C31.6091 49.4831 28.1771 50.1487 24.3499 50.1487ZM46.0275 49.3999V15.8287H55.3251V25.3135L54.0147 22.5679C55.0131 20.1967 56.6147 18.4079 58.8195 17.2015C61.0243 15.9535 63.7075 15.3295 66.8691 15.3295V24.3151C66.4531 24.2735 66.0787 24.2527 65.7459 24.2527C65.4131 24.2111 65.0595 24.1903 64.6851 24.1903C62.0227 24.1903 59.8595 24.9599 58.1955 26.4991C56.5731 27.9967 55.7619 30.3471 55.7619 33.5503V49.3999H46.0275ZM86.5783 49.8991C82.7511 49.8991 79.3815 49.1503 76.4695 47.6527C73.5991 46.1551 71.3735 44.1167 69.7927 41.5375C68.2119 38.9167 67.4215 35.9423 67.4215 32.6143C67.4215 29.2447 68.1911 26.2703 69.7303 23.6911C71.3111 21.0703 73.4535 19.0319 76.1575 17.5759C78.8615 16.0783 81.9191 15.3295 85.3303 15.3295C88.6167 15.3295 91.5703 16.0367 94.1911 17.4511C96.8535 18.8239 98.9543 20.8207 100.493 23.4415C102.033 26.0207 102.802 29.1199 102.802 32.7391C102.802 33.1135 102.781 33.5503 102.74 34.0495C102.698 34.5071 102.657 34.9439 102.615 35.3599H75.3463V29.6815H97.4983L93.7543 31.3663C93.7543 29.6191 93.4007 28.1007 92.6935 26.8111C91.9863 25.5215 91.0087 24.5231 89.7607 23.8159C88.5127 23.0671 87.0567 22.6927 85.3927 22.6927C83.7287 22.6927 82.2519 23.0671 80.9623 23.8159C79.7143 24.5231 78.7366 25.5423 78.0294 26.8735C77.3222 28.1631 76.9687 29.7023 76.9687 31.4911V32.9887C76.9687 34.8191 77.3639 36.4415 78.1543 37.8559C78.9863 39.2287 80.1303 40.2895 81.5863 41.0383C83.0839 41.7455 84.831 42.0991 86.8278 42.0991C88.6166 42.0991 90.1767 41.8287 91.5079 41.2879C92.8807 40.7471 94.1287 39.9359 95.2519 38.8543L100.431 44.4703C98.8919 46.2175 96.9574 47.5695 94.6278 48.5263C92.2982 49.4415 89.6151 49.8991 86.5783 49.8991ZM121.202 49.8991C118.04 49.8991 115.19 49.1919 112.653 47.7775C110.115 46.3215 108.098 44.3039 106.6 41.7247C105.144 39.1455 104.416 36.1087 104.416 32.6143C104.416 29.0783 105.144 26.0207 106.6 23.4415C108.098 20.8623 110.115 18.8655 112.653 17.4511C115.19 16.0367 118.04 15.3295 121.202 15.3295C124.03 15.3295 126.506 15.9535 128.627 17.2015C130.749 18.4495 132.392 20.3423 133.557 22.8799C134.722 25.4175 135.304 28.6623 135.304 32.6143C135.304 36.5247 134.742 39.7695 133.619 42.3487C132.496 44.8863 130.874 46.7791 128.752 48.0271C126.672 49.2751 124.155 49.8991 121.202 49.8991ZM122.886 41.9119C124.467 41.9119 125.902 41.5375 127.192 40.7887C128.482 40.0399 129.501 38.9791 130.25 37.6063C131.04 36.1919 131.435 34.5279 131.435 32.6143C131.435 30.6591 131.04 28.9951 130.25 27.6223C129.501 26.2495 128.482 25.1887 127.192 24.4399C125.902 23.6911 124.467 23.3167 122.886 23.3167C121.264 23.3167 119.808 23.6911 118.518 24.4399C117.229 25.1887 116.189 26.2495 115.398 27.6223C114.65 28.9951 114.275 30.6591 114.275 32.6143C114.275 34.5279 114.65 36.1919 115.398 37.6063C116.189 38.9791 117.229 40.0399 118.518 40.7887C119.808 41.5375 121.264 41.9119 122.886 41.9119ZM131.685 49.3999V42.5359L131.872 32.5519L131.248 22.6303V3.09914H140.982V49.3999H131.685ZM147.495 49.3999V15.8287H157.23V49.3999H147.495ZM152.363 11.1487C150.574 11.1487 149.118 10.6287 147.995 9.58874C146.871 8.54874 146.31 7.25914 146.31 5.71994C146.31 4.18074 146.871 2.89114 147.995 1.85114C149.118 0.811138 150.574 0.291138 152.363 0.291138C154.151 0.291138 155.607 0.790338 156.731 1.78874C157.854 2.74554 158.415 3.99354 158.415 5.53274C158.415 7.15514 157.854 8.50714 156.731 9.58874C155.649 10.6287 154.193 11.1487 152.363 11.1487ZM164.455 49.3999V5.71994H185.796C191.287 5.71994 195.406 6.75994 198.151 8.83994C200.938 10.9199 202.332 13.6655 202.332 17.0767C202.332 19.3647 201.77 21.3615 200.647 23.0671C199.524 24.7311 197.985 26.0207 196.03 26.9359C194.074 27.8511 191.828 28.3087 189.29 28.3087L190.476 25.7503C193.222 25.7503 195.655 26.2079 197.777 27.1231C199.898 27.9967 201.542 29.3071 202.706 31.0543C203.913 32.8015 204.516 34.9439 204.516 37.4815C204.516 41.2255 203.039 44.1583 200.086 46.2799C197.132 48.3599 192.785 49.3999 187.044 49.3999H164.455ZM174.502 41.7871H186.295C188.916 41.7871 190.892 41.3711 192.223 40.5391C193.596 39.6655 194.282 38.2927 194.282 36.4207C194.282 34.5903 193.596 33.2383 192.223 32.3647C190.892 31.4495 188.916 30.9919 186.295 30.9919H173.753V23.6287H184.548C187.002 23.6287 188.874 23.2127 190.164 22.3807C191.495 21.5071 192.161 20.1967 192.161 18.4495C192.161 16.7439 191.495 15.4751 190.164 14.6431C188.874 13.7695 187.002 13.3327 184.548 13.3327H174.502V41.7871ZM208.986 49.3999V15.8287H218.721V49.3999H208.986ZM213.853 11.1487C212.065 11.1487 210.609 10.6287 209.485 9.58874C208.362 8.54874 207.801 7.25914 207.801 5.71994C207.801 4.18074 208.362 2.89114 209.485 1.85114C210.609 0.811138 212.065 0.291138 213.853 0.291138C215.642 0.291138 217.098 0.790338 218.221 1.78874C219.345 2.74554 219.906 3.99354 219.906 5.53274C219.906 7.15514 219.345 8.50714 218.221 9.58874C217.14 10.6287 215.684 11.1487 213.853 11.1487ZM239.674 49.8991C236.512 49.8991 233.663 49.1919 231.125 47.7775C228.588 46.3215 226.57 44.3039 225.072 41.7247C223.616 39.1455 222.888 36.1087 222.888 32.6143C222.888 29.0783 223.616 26.0207 225.072 23.4415C226.57 20.8623 228.588 18.8655 231.125 17.4511C233.663 16.0367 236.512 15.3295 239.674 15.3295C242.503 15.3295 244.978 15.9535 247.1 17.2015C249.221 18.4495 250.864 20.3423 252.029 22.8799C253.194 25.4175 253.776 28.6623 253.776 32.6143C253.776 36.5247 253.215 39.7695 252.092 42.3487C250.968 44.8863 249.346 46.7791 247.224 48.0271C245.144 49.2751 242.628 49.8991 239.674 49.8991ZM241.359 41.9119C242.94 41.9119 244.375 41.5375 245.664 40.7887C246.954 40.0399 247.973 38.9791 248.722 37.6063C249.512 36.1919 249.908 34.5279 249.908 32.6143C249.908 30.6591 249.512 28.9951 248.722 27.6223C247.973 26.2495 246.954 25.1887 245.664 24.4399C244.375 23.6911 242.94 23.3167 241.359 23.3167C239.736 23.3167 238.28 23.6911 236.991 24.4399C235.701 25.1887 234.661 26.2495 233.871 27.6223C233.122 28.9951 232.748 30.6591 232.748 32.6143C232.748 34.5279 233.122 36.1919 233.871 37.6063C234.661 38.9791 235.701 40.0399 236.991 40.7887C238.28 41.5375 239.736 41.9119 241.359 41.9119ZM250.157 49.3999V42.5359L250.344 32.5519L249.72 22.6303V3.09914H259.455V49.3999H250.157Z" fill="#034C8C"/>
</g>
<defs>
<clipPath id="clip0_40_1318">
<rect width="260" height="50.2667" fill="white"/>
</clipPath>
</defs>
</svg>
