<svg width="300" height="169" viewBox="0 0 300 169" fill="none" xmlns="http://www.w3.org/2000/svg">
<rect width="300" height="168.249" fill="#E9E9E9"/>
<path d="M82.044 110L75.24 99.902V110H73.404V97.076H75.564L82.206 106.904V97.076H84.042V110H82.044ZM90.6857 110.18C87.9857 110.18 86.0057 108.056 86.0057 105.23C86.0057 102.404 87.9857 100.28 90.6857 100.28C93.3857 100.28 95.3657 102.404 95.3657 105.23C95.3657 108.056 93.3857 110.18 90.6857 110.18ZM90.6857 108.578C92.2517 108.578 93.4937 107.318 93.4937 105.23C93.4937 103.142 92.2517 101.9 90.6857 101.9C89.1197 101.9 87.8957 103.142 87.8957 105.23C87.8957 107.318 89.1197 108.578 90.6857 108.578ZM103.195 98.246C103.195 98.93 102.655 99.452 101.881 99.452C101.107 99.452 100.549 98.93 100.549 98.246C100.549 97.544 101.107 97.04 101.881 97.04C102.655 97.04 103.195 97.544 103.195 98.246ZM102.799 110H100.981V100.46H102.799V110ZM107.141 110H105.323V100.46H107.015V102.044C107.663 100.946 108.688 100.28 110.003 100.28C111.407 100.28 112.469 101 112.901 102.26C113.566 101.036 114.665 100.28 116.123 100.28C118.085 100.28 119.345 101.558 119.345 103.826V110H117.527V104.402C117.527 102.818 116.825 101.882 115.493 101.882C114.251 101.882 113.243 102.926 113.243 104.528V110H111.425V104.402C111.425 102.818 110.723 101.882 109.391 101.882C108.131 101.882 107.141 102.926 107.141 104.528V110ZM127.554 110V108.524C126.96 109.586 125.898 110.18 124.494 110.18C122.514 110.18 121.218 109.046 121.218 107.3C121.218 105.428 122.712 104.456 125.556 104.456C126.114 104.456 126.564 104.474 127.338 104.564V103.862C127.338 102.494 126.6 101.72 125.34 101.72C124.008 101.72 123.198 102.512 123.144 103.844H121.488C121.578 101.702 123.108 100.28 125.34 100.28C127.698 100.28 129.066 101.612 129.066 103.88V110H127.554ZM122.946 107.246C122.946 108.236 123.684 108.884 124.854 108.884C126.384 108.884 127.338 107.93 127.338 106.472V105.698C126.636 105.608 126.132 105.59 125.664 105.59C123.846 105.59 122.946 106.13 122.946 107.246ZM135.312 113.672C132.81 113.672 131.19 112.34 131.082 110.18H132.846C132.954 111.512 133.818 112.232 135.294 112.232C136.932 112.232 137.796 111.35 137.796 109.712V107.984C137.256 109.136 136.176 109.802 134.88 109.802C132.504 109.802 130.812 107.84 130.812 105.032C130.812 102.188 132.432 100.28 134.826 100.28C136.194 100.28 137.274 100.946 137.922 102.152V100.46H139.614V109.676C139.614 112.178 138.012 113.672 135.312 113.672ZM132.648 105.032C132.648 107.012 133.62 108.218 135.204 108.218C136.752 108.218 137.796 106.976 137.796 105.086C137.796 103.106 136.77 101.846 135.204 101.846C133.638 101.846 132.648 103.07 132.648 105.032ZM146.055 110.18C143.301 110.18 141.447 108.182 141.447 105.176C141.447 102.35 143.373 100.28 146.001 100.28C148.845 100.28 150.735 102.584 150.411 105.68H143.301C143.445 107.624 144.417 108.758 146.019 108.758C147.369 108.758 148.305 108.02 148.611 106.778H150.411C149.943 108.902 148.305 110.18 146.055 110.18ZM145.965 101.648C144.507 101.648 143.517 102.692 143.319 104.474H148.485C148.395 102.71 147.441 101.648 145.965 101.648ZM161.884 110V108.524C161.29 109.586 160.228 110.18 158.824 110.18C156.844 110.18 155.548 109.046 155.548 107.3C155.548 105.428 157.042 104.456 159.886 104.456C160.444 104.456 160.894 104.474 161.668 104.564V103.862C161.668 102.494 160.93 101.72 159.67 101.72C158.338 101.72 157.528 102.512 157.474 103.844H155.818C155.908 101.702 157.438 100.28 159.67 100.28C162.028 100.28 163.396 101.612 163.396 103.88V110H161.884ZM157.276 107.246C157.276 108.236 158.014 108.884 159.184 108.884C160.714 108.884 161.668 107.93 161.668 106.472V105.698C160.966 105.608 160.462 105.59 159.994 105.59C158.176 105.59 157.276 106.13 157.276 107.246ZM173.448 100.46L169.866 110H167.886L164.304 100.46H166.266L168.912 107.912L171.594 100.46H173.448ZM180.306 110V108.524C179.712 109.586 178.65 110.18 177.246 110.18C175.266 110.18 173.97 109.046 173.97 107.3C173.97 105.428 175.464 104.456 178.308 104.456C178.866 104.456 179.316 104.474 180.09 104.564V103.862C180.09 102.494 179.352 101.72 178.092 101.72C176.76 101.72 175.95 102.512 175.896 103.844H174.24C174.33 101.702 175.86 100.28 178.092 100.28C180.45 100.28 181.818 101.612 181.818 103.88V110H180.306ZM175.698 107.246C175.698 108.236 176.436 108.884 177.606 108.884C179.136 108.884 180.09 107.93 180.09 106.472V105.698C179.388 105.608 178.884 105.59 178.416 105.59C176.598 105.59 175.698 106.13 175.698 107.246ZM186.462 98.246C186.462 98.93 185.922 99.452 185.148 99.452C184.374 99.452 183.816 98.93 183.816 98.246C183.816 97.544 184.374 97.04 185.148 97.04C185.922 97.04 186.462 97.544 186.462 98.246ZM186.066 110H184.248V100.46H186.066V110ZM190.426 110H188.59V97.076H190.426V110ZM198.727 110V108.524C198.133 109.586 197.071 110.18 195.667 110.18C193.687 110.18 192.391 109.046 192.391 107.3C192.391 105.428 193.885 104.456 196.729 104.456C197.287 104.456 197.737 104.474 198.511 104.564V103.862C198.511 102.494 197.773 101.72 196.513 101.72C195.181 101.72 194.371 102.512 194.317 103.844H192.661C192.751 101.702 194.281 100.28 196.513 100.28C198.871 100.28 200.239 101.612 200.239 103.88V110H198.727ZM194.119 107.246C194.119 108.236 194.857 108.884 196.027 108.884C197.557 108.884 198.511 107.93 198.511 106.472V105.698C197.809 105.608 197.305 105.59 196.837 105.59C195.019 105.59 194.119 106.13 194.119 107.246ZM211.778 105.23C211.778 108.092 210.122 110.18 207.548 110.18C206.198 110.18 205.046 109.496 204.362 108.29V110H202.67V97.076H204.488V102.098C205.154 100.928 206.252 100.28 207.548 100.28C210.104 100.28 211.778 102.332 211.778 105.23ZM209.888 105.23C209.888 103.07 208.754 101.882 207.188 101.882C205.676 101.882 204.488 103.052 204.488 105.194C204.488 107.3 205.64 108.56 207.188 108.56C208.754 108.56 209.888 107.354 209.888 105.23ZM215.457 110H213.621V97.076H215.457V110ZM221.905 110.18C219.151 110.18 217.297 108.182 217.297 105.176C217.297 102.35 219.223 100.28 221.851 100.28C224.695 100.28 226.585 102.584 226.261 105.68H219.151C219.295 107.624 220.267 108.758 221.869 108.758C223.219 108.758 224.155 108.02 224.461 106.778H226.261C225.793 108.902 224.155 110.18 221.905 110.18ZM221.815 101.648C220.357 101.648 219.367 102.692 219.169 104.474H224.335C224.245 102.71 223.291 101.648 221.815 101.648Z" fill="#727272"/>
<path d="M165.25 51C167.281 51 169 52.7188 169 54.75V77.25C169 79.3594 167.281 81 165.25 81H132.75C130.641 81 129 79.3594 129 77.25V54.75C129 52.7188 130.641 51 132.75 51H165.25ZM164.781 77.25C165.016 77.25 165.25 77.0938 165.25 76.7812V55.2188C165.25 54.9844 165.016 54.75 164.781 54.75H133.219C132.906 54.75 132.75 54.9844 132.75 55.2188V76.7812C132.75 77.0938 132.906 77.25 133.219 77.25H164.781ZM139 57.875C140.719 57.875 142.125 59.2812 142.125 61C142.125 62.7969 140.719 64.125 139 64.125C137.203 64.125 135.875 62.7969 135.875 61C135.875 59.2812 137.203 57.875 139 57.875ZM136.5 73.5V69.75L139.547 66.7031C139.938 66.3125 140.484 66.3125 140.875 66.7031L144 69.75L153.297 60.4531C153.688 60.0625 154.234 60.0625 154.625 60.4531L161.5 67.25V73.5H136.5Z" fill="#727272"/>
</svg>
